<svg width="739" height="200" viewBox="0 0 739 200" fill="none" xmlns="http://www.w3.org/2000/svg">
<rect width="739" height="200" fill="#303030"/>
<path d="M94.064 74.2C99.7813 74.2 104.261 75.5653 107.504 78.296C110.747 81.0267 112.368 84.7813 112.368 89.56C112.368 94.3387 110.747 98.0933 107.504 100.824C104.261 103.512 99.7813 104.856 94.064 104.856H82.032V119H77.296V74.2H94.064ZM93.936 100.696C98.3733 100.696 101.765 99.736 104.112 97.816C106.459 95.8533 107.632 93.1013 107.632 89.56C107.632 85.9333 106.459 83.16 104.112 81.24C101.765 79.2773 98.3733 78.296 93.936 78.296H82.032V100.696H93.936ZM122.274 71.512H126.818V119H122.274V71.512ZM151.237 85.08C155.632 85.08 159.002 86.1893 161.349 88.408C163.696 90.584 164.869 93.8267 164.869 98.136V119H160.517V113.752C159.493 115.501 157.978 116.867 155.973 117.848C154.01 118.829 151.664 119.32 148.933 119.32C145.178 119.32 142.192 118.424 139.973 116.632C137.754 114.84 136.645 112.472 136.645 109.528C136.645 106.669 137.669 104.365 139.717 102.616C141.808 100.867 145.114 99.992 149.637 99.992H160.325V97.944C160.325 95.0427 159.514 92.8453 157.893 91.352C156.272 89.816 153.904 89.048 150.789 89.048C148.656 89.048 146.608 89.4107 144.645 90.136C142.682 90.8187 140.997 91.7787 139.589 93.016L137.541 89.624C139.248 88.1733 141.296 87.064 143.685 86.296C146.074 85.4853 148.592 85.08 151.237 85.08ZM149.637 115.736C152.197 115.736 154.394 115.16 156.229 114.008C158.064 112.813 159.429 111.107 160.325 108.888V103.384H149.765C144.005 103.384 141.125 105.389 141.125 109.4C141.125 111.363 141.872 112.92 143.365 114.072C144.858 115.181 146.949 115.736 149.637 115.736ZM194.363 85.08C198.587 85.08 201.936 86.3173 204.411 88.792C206.928 91.224 208.187 94.7867 208.187 99.48V119H203.643V99.928C203.643 96.4293 202.768 93.7627 201.019 91.928C199.27 90.0933 196.774 89.176 193.531 89.176C189.904 89.176 187.024 90.264 184.891 92.44C182.8 94.5733 181.755 97.5387 181.755 101.336V119H177.211V85.336H181.563V91.544C182.8 89.496 184.507 87.9173 186.683 86.808C188.902 85.656 191.462 85.08 194.363 85.08ZM238.252 116.952C237.398 117.72 236.332 118.317 235.052 118.744C233.814 119.128 232.513 119.32 231.148 119.32C227.99 119.32 225.558 118.467 223.852 116.76C222.145 115.053 221.292 112.643 221.292 109.528V89.176H215.276V85.336H221.292V77.976H225.836V85.336H236.076V89.176H225.836V109.272C225.836 111.277 226.326 112.813 227.308 113.88C228.332 114.904 229.782 115.416 231.66 115.416C232.598 115.416 233.494 115.267 234.348 114.968C235.244 114.669 236.012 114.243 236.652 113.688L238.252 116.952ZM292.458 95.896C295.402 96.536 297.663 97.816 299.242 99.736C300.863 101.613 301.674 104.045 301.674 107.032C301.674 110.872 300.244 113.837 297.386 115.928C294.57 117.976 290.388 119 284.842 119H264.234V74.2H283.562C288.554 74.2 292.415 75.2027 295.146 77.208C297.919 79.2133 299.306 82.0507 299.306 85.72C299.306 88.1947 298.687 90.3067 297.45 92.056C296.255 93.7627 294.591 95.0427 292.458 95.896ZM268.97 78.104V94.36H283.242C286.868 94.36 289.663 93.6773 291.626 92.312C293.588 90.904 294.569 88.8773 294.569 86.232C294.569 83.5867 293.588 81.5813 291.626 80.216C289.663 78.808 286.868 78.104 283.242 78.104H268.97ZM284.778 115.096C288.788 115.096 291.818 114.413 293.866 113.048C295.914 111.683 296.938 109.549 296.938 106.648C296.938 101.059 292.884 98.264 284.778 98.264H268.97V115.096H284.778ZM323.3 85.08C327.694 85.08 331.065 86.1893 333.412 88.408C335.758 90.584 336.932 93.8267 336.932 98.136V119H332.58V113.752C331.556 115.501 330.041 116.867 328.036 117.848C326.073 118.829 323.726 119.32 320.996 119.32C317.241 119.32 314.254 118.424 312.036 116.632C309.817 114.84 308.708 112.472 308.708 109.528C308.708 106.669 309.732 104.365 311.78 102.616C313.87 100.867 317.177 99.992 321.7 99.992H332.388V97.944C332.388 95.0427 331.577 92.8453 329.956 91.352C328.334 89.816 325.966 89.048 322.852 89.048C320.718 89.048 318.67 89.4107 316.708 90.136C314.745 90.8187 313.06 91.7787 311.652 93.016L309.604 89.624C311.31 88.1733 313.358 87.064 315.748 86.296C318.137 85.4853 320.654 85.08 323.3 85.08ZM321.7 115.736C324.26 115.736 326.457 115.16 328.292 114.008C330.126 112.813 331.492 111.107 332.388 108.888V103.384H321.828C316.068 103.384 313.188 105.389 313.188 109.4C313.188 111.363 313.934 112.92 315.428 114.072C316.921 115.181 319.012 115.736 321.7 115.736ZM358.298 119.32C355.567 119.32 352.943 118.936 350.426 118.168C347.951 117.357 346.01 116.355 344.602 115.16L346.65 111.576C348.058 112.685 349.828 113.603 351.962 114.328C354.095 115.011 356.314 115.352 358.618 115.352C361.69 115.352 363.951 114.883 365.402 113.944C366.895 112.963 367.642 111.597 367.642 109.848C367.642 108.611 367.236 107.651 366.426 106.968C365.615 106.243 364.591 105.709 363.354 105.368C362.116 104.984 360.474 104.621 358.426 104.28C355.695 103.768 353.498 103.256 351.834 102.744C350.17 102.189 348.74 101.272 347.546 99.992C346.394 98.712 345.818 96.9413 345.818 94.68C345.818 91.864 346.991 89.56 349.338 87.768C351.684 85.976 354.948 85.08 359.13 85.08C361.306 85.08 363.482 85.3787 365.658 85.976C367.834 86.5307 369.626 87.2773 371.034 88.216L369.05 91.864C366.276 89.944 362.97 88.984 359.13 88.984C356.228 88.984 354.031 89.496 352.538 90.52C351.087 91.544 350.362 92.888 350.362 94.552C350.362 95.832 350.767 96.856 351.578 97.624C352.431 98.392 353.476 98.968 354.714 99.352C355.951 99.6933 357.658 100.056 359.833 100.44C362.522 100.952 364.676 101.464 366.298 101.976C367.919 102.488 369.306 103.363 370.458 104.6C371.61 105.837 372.186 107.544 372.186 109.72C372.186 112.664 370.948 115.011 368.474 116.76C366.042 118.467 362.65 119.32 358.298 119.32ZM409.898 103.576H381.738C381.994 107.075 383.338 109.912 385.77 112.088C388.202 114.221 391.274 115.288 394.986 115.288C397.077 115.288 398.997 114.925 400.746 114.2C402.495 113.432 404.01 112.323 405.29 110.872L407.85 113.816C406.357 115.608 404.479 116.973 402.218 117.912C399.999 118.851 397.546 119.32 394.858 119.32C391.402 119.32 388.33 118.595 385.642 117.144C382.997 115.651 380.927 113.603 379.434 111C377.941 108.397 377.194 105.453 377.194 102.168C377.194 98.8827 377.898 95.9387 379.306 93.336C380.757 90.7333 382.719 88.7067 385.194 87.256C387.711 85.8053 390.527 85.08 393.642 85.08C396.757 85.08 399.551 85.8053 402.026 87.256C404.501 88.7067 406.442 90.7333 407.85 93.336C409.258 95.896 409.962 98.84 409.962 102.168L409.898 103.576ZM393.642 88.984C390.399 88.984 387.669 90.0293 385.45 92.12C383.274 94.168 382.037 96.856 381.738 100.184H405.61C405.311 96.856 404.053 94.168 401.834 92.12C399.658 90.0293 396.927 88.984 393.642 88.984ZM449.931 71.512V119H445.579V112.344C444.214 114.605 442.4 116.333 440.139 117.528C437.92 118.723 435.403 119.32 432.587 119.32C429.43 119.32 426.571 118.595 424.011 117.144C421.451 115.693 419.446 113.667 417.995 111.064C416.544 108.461 415.819 105.496 415.819 102.168C415.819 98.84 416.544 95.8747 417.995 93.272C419.446 90.6693 421.451 88.664 424.011 87.256C426.571 85.8053 429.43 85.08 432.587 85.08C435.318 85.08 437.771 85.656 439.947 86.808C442.166 87.9173 443.979 89.56 445.387 91.736V71.512H449.931ZM432.971 115.288C435.318 115.288 437.43 114.755 439.307 113.688C441.227 112.579 442.72 111.021 443.787 109.016C444.896 107.011 445.451 104.728 445.451 102.168C445.451 99.608 444.896 97.3253 443.787 95.32C442.72 93.3147 441.227 91.7787 439.307 90.712C437.43 89.6027 435.318 89.048 432.971 89.048C430.582 89.048 428.427 89.6027 426.507 90.712C424.63 91.7787 423.136 93.3147 422.027 95.32C420.96 97.3253 420.427 99.608 420.427 102.168C420.427 104.728 420.96 107.011 422.027 109.016C423.136 111.021 424.63 112.579 426.507 113.688C428.427 114.755 430.582 115.288 432.971 115.288ZM497.064 74.2C502.781 74.2 507.261 75.5653 510.504 78.296C513.747 81.0267 515.368 84.7813 515.368 89.56C515.368 94.3387 513.747 98.0933 510.504 100.824C507.261 103.512 502.781 104.856 497.064 104.856H485.032V119H480.296V74.2H497.064ZM496.936 100.696C501.373 100.696 504.765 99.736 507.112 97.816C509.459 95.8533 510.632 93.1013 510.632 89.56C510.632 85.9333 509.459 83.16 507.112 81.24C504.765 79.2773 501.373 78.296 496.936 78.296H485.032V100.696H496.936ZM525.274 71.512H529.818V119H525.274V71.512ZM554.237 85.08C558.632 85.08 562.002 86.1893 564.349 88.408C566.696 90.584 567.869 93.8267 567.869 98.136V119H563.517V113.752C562.493 115.501 560.978 116.867 558.973 117.848C557.01 118.829 554.664 119.32 551.933 119.32C548.178 119.32 545.192 118.424 542.973 116.632C540.754 114.84 539.645 112.472 539.645 109.528C539.645 106.669 540.669 104.365 542.717 102.616C544.808 100.867 548.114 99.992 552.637 99.992H563.325V97.944C563.325 95.0427 562.514 92.8453 560.893 91.352C559.272 89.816 556.904 89.048 553.789 89.048C551.656 89.048 549.608 89.4107 547.645 90.136C545.682 90.8187 543.997 91.7787 542.589 93.016L540.541 89.624C542.248 88.1733 544.296 87.064 546.685 86.296C549.074 85.4853 551.592 85.08 554.237 85.08ZM552.637 115.736C555.197 115.736 557.394 115.16 559.229 114.008C561.064 112.813 562.429 111.107 563.325 108.888V103.384H552.765C547.005 103.384 544.125 105.389 544.125 109.4C544.125 111.363 544.872 112.92 546.365 114.072C547.858 115.181 549.949 115.736 552.637 115.736ZM597.939 116.952C597.086 117.72 596.019 118.317 594.739 118.744C593.502 119.128 592.2 119.32 590.835 119.32C587.678 119.32 585.246 118.467 583.539 116.76C581.832 115.053 580.979 112.643 580.979 109.528V89.176H574.963V85.336H580.979V77.976H585.523V85.336H595.763V89.176H585.523V109.272C585.523 111.277 586.014 112.813 586.995 113.88C588.019 114.904 589.47 115.416 591.347 115.416C592.286 115.416 593.182 115.267 594.035 114.968C594.931 114.669 595.699 114.243 596.339 113.688L597.939 116.952ZM634.336 103.576H606.176C606.432 107.075 607.776 109.912 610.208 112.088C612.64 114.221 615.712 115.288 619.424 115.288C621.514 115.288 623.434 114.925 625.184 114.2C626.933 113.432 628.448 112.323 629.728 110.872L632.288 113.816C630.794 115.608 628.917 116.973 626.656 117.912C624.437 118.851 621.984 119.32 619.296 119.32C615.84 119.32 612.768 118.595 610.08 117.144C607.434 115.651 605.365 113.603 603.872 111C602.378 108.397 601.632 105.453 601.632 102.168C601.632 98.8827 602.336 95.9387 603.744 93.336C605.194 90.7333 607.157 88.7067 609.632 87.256C612.149 85.8053 614.965 85.08 618.08 85.08C621.194 85.08 623.989 85.8053 626.464 87.256C628.938 88.7067 630.88 90.7333 632.288 93.336C633.696 95.896 634.4 98.84 634.4 102.168L634.336 103.576ZM618.08 88.984C614.837 88.984 612.106 90.0293 609.888 92.12C607.712 94.168 606.474 96.856 606.176 100.184H630.048C629.749 96.856 628.49 94.168 626.272 92.12C624.096 90.0293 621.365 88.984 618.08 88.984ZM652.673 119.32C649.942 119.32 647.318 118.936 644.801 118.168C642.326 117.357 640.385 116.355 638.977 115.16L641.025 111.576C642.433 112.685 644.203 113.603 646.337 114.328C648.47 115.011 650.689 115.352 652.993 115.352C656.065 115.352 658.326 114.883 659.777 113.944C661.27 112.963 662.017 111.597 662.017 109.848C662.017 108.611 661.611 107.651 660.801 106.968C659.99 106.243 658.966 105.709 657.729 105.368C656.491 104.984 654.849 104.621 652.801 104.28C650.07 103.768 647.873 103.256 646.209 102.744C644.545 102.189 643.115 101.272 641.921 99.992C640.769 98.712 640.193 96.9413 640.193 94.68C640.193 91.864 641.366 89.56 643.713 87.768C646.059 85.976 649.323 85.08 653.505 85.08C655.681 85.08 657.857 85.3787 660.033 85.976C662.209 86.5307 664.001 87.2773 665.409 88.216L663.425 91.864C660.651 89.944 657.345 88.984 653.505 88.984C650.603 88.984 648.406 89.496 646.913 90.52C645.462 91.544 644.737 92.888 644.737 94.552C644.737 95.832 645.142 96.856 645.953 97.624C646.806 98.392 647.851 98.968 649.089 99.352C650.326 99.6933 652.033 100.056 654.208 100.44C656.897 100.952 659.051 101.464 660.673 101.976C662.294 102.488 663.681 103.363 664.833 104.6C665.985 105.837 666.561 107.544 666.561 109.72C666.561 112.664 665.323 115.011 662.849 116.76C660.417 118.467 657.025 119.32 652.673 119.32Z" fill="white"/>
</svg>
